<?xml version="1.0" encoding="UTF-8"?>
<svg width="238px" height="22px" viewBox="0 0 238 22" version="1.1" xmlns="http://www.w3.org/2000/svg" xmlns:xlink="http://www.w3.org/1999/xlink">
    <!-- Generator: Sketch 50 (54983) - http://www.bohemiancoding.com/sketch -->
    <title>hofmei-large</title>
    <desc>Created with Sketch.</desc>
    <defs></defs>
    <g id="Page-1" stroke="none" stroke-width="1" fill="none" fill-rule="evenodd">
        <g id="hofmei-large" fill-rule="nonzero">
            <g id="g11421" transform="translate(118.861108, 10.914445) scale(-1, 1) rotate(-180.000000) translate(-118.861108, -10.914445) translate(0.000000, 0.220001)">
                <g id="g11423">
                    <path d="M36.7664602,17.1335385 C36.7664602,16.8363551 36.7664602,1.14368219 36.7664602,0.846486646 C36.4945769,0.846486646 33.2788492,0.846486646 33.0069047,0.846486646 C33.0069047,1.13867108 33.0069047,7.67586092 33.0069047,7.67586092 L30.0752826,7.67586092 C30.0752826,7.67586092 30.0752826,1.13867108 30.0752826,0.846486646 C29.8033381,0.846486646 26.587366,0.846486646 26.3157271,0.846486646 C26.3157271,1.14368219 26.3157271,16.8363551 26.3157271,17.1335385 C26.587366,17.1335385 29.8033381,17.1335385 30.0752826,17.1335385 C30.0752826,16.8430162 30.0752826,11.1697053 30.0752826,11.1697053 L33.0069047,11.1697053 C33.0069047,11.1697053 33.0069047,16.8430162 33.0069047,17.1335385 C33.2788492,17.1335385 36.4945769,17.1335385 36.7664602,17.1335385" id="path11425" fill="#FFFFFF"></path>
                    <path d="M44.6956267,3.73947435 C43.1193878,3.73947435 42.9016489,4.37732156 42.9016489,8.98999422 C42.9016489,13.6029663 43.1193878,14.2405385 44.6956267,14.2405385 C46.2883044,14.2405385 46.4895433,13.6519163 46.4895433,8.98999422 C46.4895433,4.32814545 46.2883044,3.73947435 44.6956267,3.73947435 Z M44.6956267,17.3739496 C40.8814379,17.3739496 39.066499,16.1192774 39.066499,8.98999422 C39.066499,1.8607844 40.8814379,0.606337096 44.6956267,0.606337096 C48.5100599,0.606337096 50.3249987,1.8607844 50.3249987,8.98999422 C50.3249987,16.1192774 48.5100599,17.3739496 44.6956267,17.3739496 Z" id="path11427" fill="#FFFFFF"></path>
                    <path d="M60.5002429,17.1335385 C60.5002429,16.8661774 60.5002429,14.1474663 60.5002429,13.8801052 C60.2171152,13.8801052 56.3845319,13.8801052 56.3845319,13.8801052 L56.3845319,11.0494386 C56.3845319,11.0494386 59.8905374,11.0494386 60.1720152,11.0494386 C60.1720152,10.7820775 60.1720152,8.0635498 60.1720152,7.79618869 C59.8905374,7.79618869 56.3845319,7.79618869 56.3845319,7.79618869 C56.3845319,7.79618869 56.3845319,1.13867108 56.3845319,0.846486646 C56.1126486,0.846486646 52.8969209,0.846486646 52.6250376,0.846486646 C52.6250376,1.14368219 52.6250376,16.8363551 52.6250376,17.1335385 C52.9136042,17.1335385 60.2116152,17.1335385 60.5002429,17.1335385" id="path11429" fill="#FFFFFF"></path>
                    <path d="M76.0283314,17.1335385 C76.0283314,16.8363551 76.0283314,1.14368219 76.0283314,0.846486646 C75.761887,0.846486646 73.1163871,0.846486646 72.8493315,0.846486646 C72.8493315,1.13986275 72.8493315,8.22042202 72.8493315,8.22042202 C72.8493315,9.023422 73.0742204,12.1697275 73.0766648,12.2011997 L72.7735537,12.2401275 C72.7680537,12.2083497 72.191776,9.086672 71.9687204,8.2605109 C71.9674982,8.25714979 69.9404427,1.06252053 69.8793316,0.846486646 C69.6880538,0.846486646 68.3582761,0.846486646 68.1663872,0.846486646 C68.1052761,1.06252053 66.0769983,8.26191646 66.0769983,8.26191646 C65.9040539,8.89667756 65.2782761,12.2076775 65.272165,12.2406164 L64.9690539,12.2021775 C64.9714984,12.1677719 65.1963873,8.78594422 65.1963873,8.22042202 C65.1963873,8.22042202 65.1963873,1.13986275 65.1963873,0.846486646 C64.9354428,0.846486646 62.7329984,0.846486646 62.472054,0.846486646 C62.472054,1.14368219 62.472054,16.8363551 62.472054,17.1335385 C62.747054,17.1335385 66.0879983,17.1335385 66.295165,17.1335385 C66.3581095,16.9206274 68.5862205,9.37957754 68.5862205,9.37957754 C68.9559427,8.11152202 69.0842761,6.7059665 69.0854983,6.69215539 L69.3898316,6.69478317 C69.3910538,6.70834983 69.4943316,8.11298869 69.8640538,9.38006643 C69.8640538,9.38006643 72.0915538,16.9206274 72.1544982,17.1335385 C72.362276,17.1335385 75.7527203,17.1335385 76.0283314,17.1335385" id="path11431" fill="#FFFFFF"></path>
                    <path d="M86.9103867,17.1335385 C86.9103867,16.8661774 86.9103867,14.1474663 86.9103867,13.8801052 C86.6262201,13.8801052 82.6179424,13.8801052 82.6179424,13.8801052 L82.6179424,11.0494386 C82.6179424,11.0494386 86.3499978,11.0494386 86.6329423,11.0494386 C86.6329423,10.7820775 86.6329423,8.0635498 86.6329423,7.79618869 C86.3499978,7.79618869 82.6179424,7.79618869 82.6179424,7.79618869 L82.6179424,4.09993212 C82.6179424,4.09993212 86.9531645,4.09993212 87.2385534,4.09993212 C87.2385534,3.83257102 87.2385534,1.11384775 87.2385534,0.846486646 C86.9488867,0.846486646 79.1486647,0.846486646 78.858998,0.846486646 C78.858998,1.14368219 78.858998,16.8363551 78.858998,17.1335385 C79.1480536,17.1335385 86.6213312,17.1335385 86.9103867,17.1335385" id="path11433" fill="#FFFFFF"></path>
                    <path d="M93.3490532,17.1335385 C93.3490532,16.8363551 93.3490532,1.14368219 93.3490532,0.846486646 C93.0771088,0.846486646 89.8614422,0.846486646 89.5894978,0.846486646 C89.5894978,1.14368219 89.5894978,16.8363551 89.5894978,17.1335385 C89.8614422,17.1335385 93.0771088,17.1335385 93.3490532,17.1335385" id="path11435" fill="#FFFFFF"></path>
                    <path d="M101.606386,5.59930542 C101.606386,6.88575538 100.967164,7.4595887 99.5347197,7.4595887 C97.3707753,7.4595887 95.3693865,8.07907202 95.3693865,12.5731219 C95.3693865,15.7587829 97.0340531,17.3739496 100.316942,17.3739496 C101.43772,17.3739496 103.245386,16.9898662 104.305053,16.6205718 C104.305053,16.4228774 104.305053,13.7874608 104.305053,13.4019719 C103.071831,13.9295441 102.076331,14.2405385 100.847386,14.2405385 C99.8500531,14.2405385 98.9272753,14.047183 98.9272753,12.645233 C98.9272753,11.4593108 99.4332753,10.9534331 100.620053,10.9534331 C102.57072,10.9534331 105.163664,10.4132109 105.163664,5.74349097 C105.163664,1.27378775 101.92172,0.606337096 99.9887753,0.606337096 C98.177442,0.606337096 97.0481087,0.935048866 95.9756087,1.30935441 C95.9756087,1.50295441 95.9756087,4.14767823 95.9756087,4.531291 C97.2363309,4.00206268 98.1261087,3.73947435 99.4332753,3.73947435 C100.365831,3.73947435 101.606386,3.93187657 101.606386,5.59930542" id="path11437" fill="#FFFFFF"></path>
                    <path d="M115.794553,17.1335385 C115.794553,16.8661774 115.794553,14.1474663 115.794553,13.8801052 C115.517108,13.8801052 112.512275,13.8801052 112.512275,13.8801052 C112.512275,13.8801052 112.512275,1.14487997 112.512275,0.846486646 C112.240942,0.846486646 109.024664,0.846486646 108.75272,0.846486646 C108.75272,1.14487997 108.75272,13.8801052 108.75272,13.8801052 C108.75272,13.8801052 105.747886,13.8801052 105.470442,13.8801052 C105.470442,14.1474663 105.470442,16.8661774 105.470442,17.1335385 C105.762553,17.1335385 115.502442,17.1335385 115.794553,17.1335385" id="path11439" fill="#FFFFFF"></path>
                    <path d="M125.137219,17.1335385 C125.137219,16.8661774 125.137219,14.1474663 125.137219,13.8801052 C124.853052,13.8801052 120.844775,13.8801052 120.844775,13.8801052 L120.844775,11.0494386 C120.844775,11.0494386 124.57683,11.0494386 124.859164,11.0494386 C124.859164,10.7820775 124.859164,8.0635498 124.859164,7.79618869 C124.57683,7.79618869 120.844775,7.79618869 120.844775,7.79618869 L120.844775,4.09993212 C120.844775,4.09993212 125.179386,4.09993212 125.465386,4.09993212 C125.465386,3.83257102 125.465386,1.11384775 125.465386,0.846486646 C125.175719,0.846486646 117.374886,0.846486646 117.085219,0.846486646 C117.085219,1.14368219 117.085219,16.8363551 117.085219,17.1335385 C117.373664,17.1335385 124.848164,17.1335385 125.137219,17.1335385" id="path11441" fill="#FFFFFF"></path>
                    <path d="M132.636774,10.2318331 L131.449386,10.2318331 L131.449386,14.0963774 L132.535941,14.0963774 C133.87183,14.0963774 134.607608,13.4186552 134.607608,12.1880608 C134.607608,10.8715442 133.962886,10.2318331 132.636774,10.2318331 Z M136.239885,8.10962758 L136.338274,8.17764424 C137.517108,8.99286644 138.115385,10.342322 138.115385,12.1880608 C138.115385,15.4234052 136.176941,17.1335385 132.510886,17.1335385 C132.510886,17.1335385 128.10233,17.1335385 127.815719,17.1335385 C127.815719,16.8363551 127.815719,1.14368219 127.815719,0.846486646 C128.087052,0.846486646 131.178052,0.846486646 131.449386,0.846486646 C131.449386,1.13747942 131.449386,7.21899426 131.449386,7.21899426 L132.94783,7.21899426 C132.94783,7.21899426 135.100163,1.04485942 135.16983,0.846486646 C135.364163,0.846486646 138.595719,0.846486646 138.980719,0.846486646 C138.833441,1.2370233 136.239885,8.10962758 136.239885,8.10962758 Z" id="path11443" fill="#FFFFFF"></path>
                    <path d="M149.098274,4.50097378 C148.566607,3.75499046 148.107052,3.45087102 147.508774,3.45087102 C146.570107,3.45087102 146.094052,4.06054601 146.094052,5.26271765 C146.094052,6.09129874 146.386163,6.73536094 147.073052,7.41546648 L147.205052,7.54624426 L149.158163,4.58619933 L149.098274,4.50097378 Z M152.783885,5.0624321 L152.828496,5.14359987 C153.409663,6.20589429 154.032385,7.53243315 154.778552,9.28839977 C154.520052,9.38629977 152.128774,10.290072 151.886163,10.3817386 C151.821385,10.2215664 151.707107,9.94008864 151.707107,9.94008864 L150.87233,7.94682758 C150.87233,7.94682758 148.088107,12.1279275 148.086885,12.1303108 C147.698219,12.7383052 147.532607,13.2234052 147.532607,13.7512219 C147.532607,14.1928108 147.901719,14.6492496 148.51833,14.6492496 C149.24983,14.6492496 149.680663,14.5191441 151.078274,13.2716219 C151.254274,13.479033 153.030774,15.5754496 153.202496,15.7783385 C151.892274,17.0046551 150.786163,17.6384384 148.594107,17.6384384 C145.698663,17.6384384 143.899552,16.1672496 143.899552,13.7991941 C143.899552,12.7483275 144.334052,11.8932608 145.034385,10.8548608 L145.56483,10.0694609 L145.462774,9.98066642 C143.526774,8.29583313 142.586274,6.6267665 142.586274,4.87814543 C142.586274,2.06751106 144.09633,0.581749041 146.953274,0.581749041 C148.57333,0.581749041 149.646441,1.00069442 150.657218,2.02717162 L150.78983,2.16204383 C150.78983,2.16204383 151.575107,0.969185531 151.655774,0.846486646 C151.803663,0.846486646 155.116496,0.846486646 155.605385,0.846486646 C155.320607,1.27163663 152.783885,5.0624321 152.783885,5.0624321 Z" id="path11445" fill="#FFFFFF"></path>
                    <path d="M173.261607,17.1335385 C173.261607,16.8363551 173.261607,1.14368219 173.261607,0.846486646 C172.994551,0.846486646 170.349051,0.846486646 170.082607,0.846486646 C170.082607,1.13986275 170.082607,8.22042202 170.082607,8.22042202 C170.082607,9.023422 170.307496,12.1697275 170.309329,12.2011997 L170.006218,12.2401275 C170.001329,12.2083497 169.42444,9.086672 169.201385,8.2605109 C169.200162,8.25714979 167.173107,1.06252053 167.111996,0.846486646 C166.920718,0.846486646 165.591551,0.846486646 165.399663,0.846486646 C165.338551,1.06252053 163.309663,8.26191646 163.309663,8.26191646 C163.136718,8.89667756 162.51094,12.2076775 162.504829,12.2406164 L162.202329,12.2021775 C162.204774,12.1677719 162.429051,8.78594422 162.429051,8.22042202 C162.429051,8.22042202 162.429051,1.13986275 162.429051,0.846486646 C162.168718,0.846486646 159.965663,0.846486646 159.704718,0.846486646 C159.704718,1.14368219 159.704718,16.8363551 159.704718,17.1335385 C159.979718,17.1335385 163.320663,17.1335385 163.52844,17.1335385 C163.591385,16.9206274 165.818885,9.37957754 165.818885,9.37957754 C166.188607,8.11152202 166.31694,6.7059665 166.318163,6.69215539 L166.622496,6.69478317 C166.623718,6.70834983 166.726996,8.11298869 167.097329,9.38006643 C167.097329,9.38006643 169.324218,16.9206274 169.387774,17.1335385 C169.595551,17.1335385 172.985996,17.1335385 173.261607,17.1335385" id="path11447" fill="#FFFFFF"></path>
                    <path d="M184.143662,17.1335385 C184.143662,16.8661774 184.143662,14.1474663 184.143662,13.8801052 C183.858884,13.8801052 179.851218,13.8801052 179.851218,13.8801052 L179.851218,11.0494386 C179.851218,11.0494386 183.582662,11.0494386 183.865607,11.0494386 C183.865607,10.7820775 183.865607,8.0635498 183.865607,7.79618869 C183.582662,7.79618869 179.851218,7.79618869 179.851218,7.79618869 L179.851218,4.09993212 C179.851218,4.09993212 184.18644,4.09993212 184.471829,4.09993212 C184.471829,3.83257102 184.471829,1.11384775 184.471829,0.846486646 C184.182162,0.846486646 176.381329,0.846486646 176.091662,0.846486646 C176.091662,1.14368219 176.091662,16.8363551 176.091662,17.1335385 C176.380718,17.1335385 183.854607,17.1335385 184.143662,17.1335385" id="path11449" fill="#FFFFFF"></path>
                    <path d="M190.581717,17.1335385 C190.581717,16.8363551 190.581717,1.14368219 190.581717,0.846486646 C190.309773,0.846486646 187.094106,0.846486646 186.822773,0.846486646 C186.822773,1.14368219 186.822773,16.8363551 186.822773,17.1335385 C187.094106,17.1335385 190.309773,17.1335385 190.581717,17.1335385" id="path11451" fill="#FFFFFF"></path>
                    <path d="M203.661328,17.1335385 C203.661328,16.8363551 203.661328,1.14368219 203.661328,0.846486646 C203.393662,0.846486646 201.001773,0.846486646 200.830051,0.846486646 C200.748773,1.01621053 197.841106,7.13184982 197.841106,7.13184982 C197.07294,8.75991089 196.617051,10.3158609 196.612773,10.3313831 L196.315162,10.264772 C196.317606,10.2485164 196.565106,8.66537201 196.565106,6.70553872 C196.565106,6.70553872 196.565106,1.13676442 196.565106,0.846486646 C196.299884,0.846486646 193.678217,0.846486646 193.412384,0.846486646 C193.412384,1.14368219 193.412384,16.8363551 193.412384,17.1335385 C193.67944,17.1335385 196.071328,17.1335385 196.243051,17.1335385 C196.324328,16.9640774 199.231995,10.8481997 199.231995,10.8481997 C199.999551,9.26737755 200.455439,7.66608314 200.459717,7.6498887 L200.757939,7.71527758 C200.755495,7.73104425 200.507384,9.33857199 200.507384,11.2745108 C200.507384,11.2745108 200.507384,16.8430162 200.507384,17.1335385 C200.773217,17.1335385 203.394273,17.1335385 203.661328,17.1335385" id="path11453" fill="#FFFFFF"></path>
                    <path d="M205.706106,8.98999422 C205.706106,15.9366163 207.524773,17.2536218 210.880995,17.2536218 C212.346439,17.2536218 213.482495,16.9538107 214.71755,16.5036051 C214.71755,16.3123885 214.71755,13.584083 214.71755,13.1608274 C213.894384,13.6000941 212.986272,14.000433 211.815384,14.000433 C210.052939,14.000433 209.466273,13.2761441 209.466273,8.98999422 C209.466273,4.7038871 210.052939,3.97986101 211.815384,3.97986101 C212.981995,3.97986101 213.83755,4.37111267 214.71755,4.86167599 C214.71755,4.42984044 214.71755,1.66790551 214.71755,1.47645663 C213.483106,1.0264772 212.34705,0.726171093 210.880995,0.726171093 C207.524773,0.726171093 205.706106,2.04340273 205.706106,8.98999422" id="path11455" fill="#FFFFFF"></path>
                    <path d="M227.560661,17.1335385 C227.315605,16.7078996 224.021106,10.9992664 224.021106,10.9992664 C224.021106,10.9992664 227.73055,1.24418552 227.881494,0.846486646 C227.495883,0.846486646 224.261883,0.846486646 224.069383,0.846486646 C223.998494,1.04175497 221.798494,7.13686093 221.798494,7.13686093 L220.476661,4.87122154 C220.476661,4.87122154 220.476661,1.12960219 220.476661,0.846486646 C220.205328,0.846486646 217.113717,0.846486646 216.843606,0.846486646 C216.843606,1.14368219 216.843606,16.8363551 216.843606,17.1335385 C217.113717,17.1335385 220.205328,17.1335385 220.476661,17.1335385 C220.476661,16.843994 220.476661,11.5387553 220.476661,11.5387553 L220.351994,10.1193886 L220.650217,10.0572997 C220.654494,10.0706831 221.007106,11.3998497 221.646328,12.5469052 C221.646328,12.5469052 224.118883,16.9819829 224.203828,17.1335385 C224.362106,17.1335385 227.116383,17.1335385 227.560661,17.1335385" id="path11457" fill="#FFFFFF"></path>
                    <path d="M236.938772,17.1335385 C236.938772,16.8661774 236.938772,14.1474663 236.938772,13.8801052 C236.655216,13.8801052 232.646328,13.8801052 232.646328,13.8801052 L232.646328,11.0494386 C232.646328,11.0494386 236.378383,11.0494386 236.661327,11.0494386 C236.661327,10.7820775 236.661327,8.0635498 236.661327,7.79618869 C236.378383,7.79618869 232.646328,7.79618869 232.646328,7.79618869 L232.646328,4.09993212 C232.646328,4.09993212 236.98155,4.09993212 237.26755,4.09993212 C237.26755,3.83257102 237.26755,1.11384775 237.26755,0.846486646 C236.977272,0.846486646 229.17705,0.846486646 228.887383,0.846486646 C228.887383,1.14368219 228.887383,16.8363551 228.887383,17.1335385 C229.176439,17.1335385 236.649716,17.1335385 236.938772,17.1335385" id="path11459" fill="#FFFFFF"></path>
                    <path d="M2.85240993,0 C4.42792767,0 5.70458152,1.27617108 5.70458152,2.85169493 C5.70458152,4.426736 4.42792767,5.70386041 2.85240993,5.70386041 C1.27808386,5.70386041 0.00119357941,4.426736 0.00119357941,2.85169493 C0.00119357941,1.27617108 1.27808386,0 2.85240993,0" id="path11461" fill="#F57615"></path>
                    <path d="M18.2853607,0 C19.8608662,0 21.1372939,1.27617108 21.1372939,2.85169493 C21.1372939,4.426736 19.8608662,5.70386041 18.2853607,5.70386041 C16.7105274,5.70386041 15.4339163,4.426736 15.4339163,2.85169493 C15.4339163,1.27617108 16.7105274,0 18.2853607,0" id="path11463" fill="#F57615"></path>
                    <path d="M10.566722,7.72456647 C12.1422275,7.72456647 13.4191441,9.00074977 13.4191441,10.5762553 C13.4191441,12.1515775 12.1422275,13.4286774 10.566722,13.4286774 C8.99219422,13.4286774 7.71552203,12.1515775 7.71552203,10.5762553 C7.71552203,9.00074977 8.99219422,7.72456647 10.566722,7.72456647" id="path11465" fill="#F57615"></path>
                    <path d="M2.85240993,15.4489496 C4.42792767,15.4489496 5.70458152,16.7253774 5.70458152,18.3008829 C5.70458152,19.8756551 4.42792767,21.1528161 2.85240993,21.1528161 C1.27808386,21.1528161 0.00119357941,19.8756551 0.00119357941,18.3008829 C0.00119357941,16.7253774 1.27808386,15.4489496 2.85240993,15.4489496" id="path11467" fill="#F57615"></path>
                    <path d="M18.2853607,15.4489496 C19.8608662,15.4489496 21.1372939,16.7253774 21.1372939,18.3008829 C21.1372939,19.8756551 19.8608662,21.1528161 18.2853607,21.1528161 C16.7105274,21.1528161 15.4339163,19.8756551 15.4339163,18.3008829 C15.4339163,16.7253774 16.7105274,15.4489496 18.2853607,15.4489496" id="path11469" fill="#F57615"></path>
                    <path d="M2.34513883,7.76874981 C2.5098516,7.73892758 2.65427549,7.72126647 2.82734215,7.72126647 C5.58259764,7.72126647 7.71026647,5.37205153 7.71026647,2.82758048 C7.71026647,2.71347382 7.71839425,2.62610938 7.73177758,2.51582216 C7.89812202,1.09904664 9.10078866,0.000954861087 10.561222,0.000954861087 C12.1369719,0.000954861087 13.4133997,1.27640941 13.4133997,2.85193326 C13.4133997,4.27896934 12.3644886,5.45822431 10.9962108,5.66829375 C10.8541275,5.68978041 10.7342886,5.70458152 10.5858497,5.70458152 C7.89048314,5.70458152 5.70362208,7.98123313 5.70362208,10.597522 C5.70362208,10.7395442 5.68954208,10.8555942 5.66948541,10.9930942 C5.46633986,12.3680941 4.28398656,13.4255608 2.85169493,13.4255608 C1.27712441,13.4255608 0,12.1484608 0,10.5729553 C0,9.17027199 1.01286775,8.00769424 2.34513883,7.76874981" id="path11471" fill="#F57615"></path>
                    <path d="M10.0694609,15.4964329 C10.2344609,15.4668552 10.3781331,15.4494385 10.5514442,15.4494385 C13.3069441,15.4494385 15.4344052,13.0997163 15.4344052,10.5552942 C15.4344052,10.4411386 15.4424718,10.3540553 15.4558552,10.2437497 C15.6225052,8.82676645 16.8251107,7.72866092 18.2856051,7.72866092 C19.8611106,7.72866092 21.1380272,9.00435533 21.1380272,10.5798608 C21.1380272,12.0071108 20.0888717,13.1863719 18.7207773,13.3964719 C18.5782662,13.4179219 18.4584273,13.4325274 18.3099273,13.4325274 C15.6151107,13.4325274 13.4277608,15.7091607 13.4277608,18.3252051 C13.4277608,18.4674718 13.414133,18.5837662 13.3940886,18.7210218 C13.1904663,20.0960217 12.008333,21.1534884 10.576072,21.1534884 C9.00172755,21.1534884 7.72456647,19.8763884 7.72456647,18.3008829 C7.72456647,16.898444 8.73699423,15.7358663 10.0694609,15.4964329" id="path11473" fill="#F57615"></path>
                </g>
            </g>
        </g>
    </g>
</svg>